<svg version="1.1" xmlns="http://www.w3.org/2000/svg" xmlns:xlink="http://www.w3.org/1999/xlink" width="48" height="48"><defs><linearGradient x1="9.82523" y1="19.63697" x2="65.28263" y2="55.47089" gradientUnits="userSpaceOnUse" id="color-1"><stop offset="0" stop-color="#000000" stop-opacity="0.45"></stop><stop offset="1" stop-color="#000000" stop-opacity="0"></stop></linearGradient><filter id="dropshadow-base"><feColorMatrix type="matrix" values="0 0 0 0 0  0 0 0 0 0  0 0 0 0 0  0 0 0 .8 0"></feColorMatrix> <feOffset dx="0" dy="1"></feOffset> <feGaussianBlur stdDeviation="1"></feGaussianBlur> <feComposite in="SourceGraphic"></feComposite></filter><filter id="dropshadow-banner" x="-10%" y="-10%" width="120%" height="130%"><feColorMatrix type="matrix" values="0 0 0 0 0  0 0 0 0 0  0 0 0 0 0  0 0 0 .4 0"></feColorMatrix> <feOffset dx="0" dy="1"></feOffset> <feGaussianBlur stdDeviation="0.5"></feGaussianBlur> <feComposite in="SourceGraphic"></feComposite></filter></defs><g fill="none" fill-rule="nonzero" stroke="none" stroke-width="none" stroke-linecap="butt" stroke-linejoin="miter" stroke-miterlimit="10" stroke-dasharray="" stroke-dashoffset="0" font-family="none" font-weight="none" font-size="none" text-anchor="none" style="mix-blend-mode: normal"><path d="M2,24c0,-12.15026 9.84974,-22 22,-22c12.15026,0 22,9.84974 22,22c0,12.15026 -9.84974,22 -22,22c-12.15026,0 -22,-9.84974 -22,-22z" id="base 1 9" fill="#fec100" stroke="none" stroke-width="1"></path><path d="M11.64148,25.9247c-0.33629,-0.33629 -0.5569,-0.62953 -0.6816,-0.81656c-0.45386,-0.6808 -0.9985,-1.86083 -1.13466,-3.72167l1.9281,1.9281c0.942,0.47288 2.13917,0.43658 3.38208,-1.25239c0,0 4.13585,-3.58542 6.67176,-2.0373c0,0 0.73382,0.40067 1.40102,1.06787l0.83886,0.83886c0.5349,-0.70934 3.31585,-3.95788 7.38203,-0.90824c4.53862,3.40397 3.54012,3.67628 6.71715,0.45386l7.32754,7.32754c-1.7055,7.65595 -7.40066,13.80818 -14.79048,16.16173z" fill="url(#color-1)" stroke="none" stroke-width="1"></path><path transform="translate(-10.01942,-10.01942) scale(1.41748,1.41748)" d="M23.96688,22.63291c0,0 2.07227,-3.13428 5.27417,-0.73285c3.2019,2.40143 2.49748,2.59354 4.73881,0.32019c0,0 0.35221,2.14527 -1.88912,3.68219c-2.24133,1.53691 -4.00238,1.21672 -4.93093,0.83249c-0.92855,-0.38423 -2.67167,-1.47287 -3.19294,-2.11325c0,0 -2.05818,2.74838 -4.84384,2.43082c-2.78565,-0.31756 -4.00238,-1.79044 -4.32257,-2.27072c-0.32019,-0.48029 -0.70442,-1.31278 -0.80048,-2.62556c0,0 1.79306,3.13082 3.74622,0.4767c0,0 2.91776,-2.52944 4.70679,-1.43727c0,0 1.04254,0.56923 1.51386,1.43727z" fill="none" stroke="#ffffff" stroke-width="0"></path><path d="M23.95305,22.06218c0,0 2.93739,-4.44276 7.47601,-1.0388c4.53862,3.40396 3.54012,3.67628 6.71715,0.45386c0,0 0.49925,3.04087 -2.67778,5.21941c-3.17703,2.17854 -5.67327,1.72467 -6.98947,1.18004c-1.3162,-0.54463 -3.78702,-2.08776 -4.52591,-2.99549c0,0 -2.91742,3.89577 -6.86602,3.44563c-3.9486,-0.45014 -5.67327,-2.5379 -6.12713,-3.2187c-0.45386,-0.68079 -0.9985,-1.86083 -1.13465,-3.72167c0,0 2.54163,4.43786 5.31018,0.67571c0,0 4.13586,-3.58542 6.67177,-2.03729c0,0 1.47777,0.80688 2.14586,2.03729z" fill="#ffffff" stroke="#ffffff" stroke-width="0"></path><path d="M2,24c0,-12.15026 9.84974,-22 22,-22c12.15026,0 22,9.84974 22,22c0,12.15026 -9.84974,22 -22,22c-12.15026,0 -22,-9.84974 -22,-22z" id="base 1 5 1" fill="none" stroke="none" stroke-width="1"></path><path d="M2,24c0,-12.15026 9.84974,-22 22,-22c12.15026,0 22,9.84974 22,22c0,12.15026 -9.84974,22 -22,22c-12.15026,0 -22,-9.84974 -22,-22z" id="base 1 1 1" fill="none" stroke="none" stroke-width="1"></path><g fill="#000000" stroke="none" stroke-width="1" font-family="Roboto, sans-serif" font-weight="400" font-size="14" text-anchor="start"></g><rect x="2" y="2" width="44" height="22" fill="none" stroke="none" stroke-width="1"></rect><path d="M2,24v-22h44v22z" fill="none" stroke="none" stroke-width="1"></path><path d="M2,24v-22h44v22z" fill="none" stroke="none" stroke-width="1"></path><path d="M2,24v-22h44v22z" fill="none" stroke="none" stroke-width="1"></path><path d="M2,24v-22h44v22z" fill="none" stroke="none" stroke-width="1"></path><g fill="#000000" stroke="none" stroke-width="1" font-family="Roboto, sans-serif" font-weight="400" font-size="14" text-anchor="start"></g><rect x="2" y="2" width="44" height="22" fill="none" stroke="none" stroke-width="1"></rect><path d="M2,24v-22h44v22z" fill="none" stroke="none" stroke-width="1"></path><path d="M2,24v-22h44v22z" fill="none" stroke="none" stroke-width="1"></path><path d="M2,24v-22h44v22z" fill="none" stroke="none" stroke-width="1"></path><path d="M2,24v-22h44v22z" fill="none" stroke="none" stroke-width="1"></path></g></svg>